<?xml version="1.0" encoding="UTF-8" standalone="no"?>
<!-- Created with Inkscape (http://www.inkscape.org/) -->

<svg
   xmlns:dc="http://purl.org/dc/elements/1.1/"
   xmlns:cc="http://creativecommons.org/ns#"
   xmlns:rdf="http://www.w3.org/1999/02/22-rdf-syntax-ns#"
   xmlns:svg="http://www.w3.org/2000/svg"
   xmlns="http://www.w3.org/2000/svg"
   xmlns:sodipodi="http://sodipodi.sourceforge.net/DTD/sodipodi-0.dtd"
   xmlns:inkscape="http://www.inkscape.org/namespaces/inkscape"
   width="210mm"
   height="297mm"
   viewBox="0 0 744.09448819 1052.3622047"
   id="svg3378"
   version="1.1"
   inkscape:version="0.91 r13725"
   sodipodi:docname="info-icon.svg">
  <defs
     id="defs3380" />
  <sodipodi:namedview
     id="base"
     pagecolor="#ffffff"
     bordercolor="#666666"
     borderopacity="1.0"
     inkscape:pageopacity="0.0"
     inkscape:pageshadow="2"
     inkscape:zoom="0.35"
     inkscape:cx="-132.14286"
     inkscape:cy="520"
     inkscape:document-units="px"
     inkscape:current-layer="layer1"
     showgrid="false"
     inkscape:window-width="1879"
     inkscape:window-height="1056"
     inkscape:window-x="41"
     inkscape:window-y="24"
     inkscape:window-maximized="1" />
  <metadata
     id="metadata3383">
    <rdf:RDF>
      <cc:Work
         rdf:about="">
        <dc:format>image/svg+xml</dc:format>
        <dc:type
           rdf:resource="http://purl.org/dc/dcmitype/StillImage" />
        <dc:title></dc:title>
      </cc:Work>
    </rdf:RDF>
  </metadata>
  <g
     inkscape:label="Layer 1"
     inkscape:groupmode="layer"
     id="layer1">
    <path
       style="fill:#4d4d4d;fill-opacity:1;stroke:none"
       d="M 378.5706,249.50559 A 264.28571,264.28571 0 0 0 114.28541,513.79074 264.28571,264.28571 0 0 0 378.5706,778.0759 264.28571,264.28571 0 0 0 642.8577,513.79074 264.28571,264.28571 0 0 0 378.5706,249.50559 Z m -2.1387,103.55468 c 4.7564,0 9.3076,0.61093 13.6563,1.83399 4.3486,1.08716 8.1545,2.85466 11.41599,5.30078 3.26149,2.31022 5.84356,5.36876 7.74609,9.17383 2.03843,3.80507 3.05664,8.35633 3.05664,13.65625 0,5.16403 -1.01821,9.64805 -3.05664,13.45312 -1.90253,3.80508 -4.4846,6.93084 -7.74609,9.37696 -3.26149,2.44611 -7.06739,4.28084 -11.41599,5.5039 -4.3487,1.22306 -8.8999,1.83594 -13.6563,1.83594 -5.0281,0 -9.7177,-0.61288 -14.0664,-1.83594 -4.2127,-1.22306 -7.9494,-3.05779 -11.2109,-5.5039 -3.1256,-2.44612 -5.6405,-5.57188 -7.543,-9.37696 -1.7666,-3.80507 -2.6484,-8.28909 -2.6484,-13.45312 0,-5.29992 0.8818,-9.85118 2.6484,-13.65625 1.9025,-3.80507 4.4174,-6.86361 7.543,-9.17383 3.2615,-2.44612 6.9982,-4.21362 11.2109,-5.30078 4.3487,-1.22306 9.0383,-1.83399 14.0664,-1.83399 z m -64.2109,97.64063 98.04881,0 0,174.49023 c 0,5.9794 0.95098,10.73625 2.85352,14.26954 2.03843,3.53328 4.48409,6.2498 7.33789,8.15234 2.9897,1.90254 6.25187,3.19357 9.78516,3.87305 3.53328,0.54358 6.7935,0.8164 9.7832,0.8164 l 4.89258,0 0,22.21875 -132.70116,0 0,-22.21875 4.8926,0 c 3.1256,0 6.3858,-0.27282 9.7832,-0.8164 3.5332,-0.67948 6.7262,-1.97051 9.58,-3.87305 2.9897,-1.90254 5.4373,-4.61906 7.3399,-8.15234 2.0384,-3.53329 3.0566,-8.29014 3.0566,-14.26954 l 0,-126.79101 c 0,-5.57171 -1.0182,-9.98851 -3.0566,-13.25 -1.9026,-3.39739 -4.3502,-5.97945 -7.3399,-7.74609 -2.9897,-1.90254 -6.2499,-3.12439 -9.7832,-3.66797 -3.3973,-0.54359 -6.5903,-0.81641 -9.58,-0.81641 l -4.8926,0 0,-22.21875 z"
       id="path3386"
       inkscape:connector-curvature="0" />
    <flowRoot
       xml:space="preserve"
       id="flowRoot3388"
       style="font-style:normal;font-weight:normal;font-size:90px;line-height:125%;font-family:'Times New Roman';letter-spacing:0px;word-spacing:0px;fill:none;fill-opacity:1;stroke:none;stroke-width:1px;stroke-linecap:butt;stroke-linejoin:miter;stroke-opacity:1;-inkscape-font-specification:'Times New Roman, ';font-stretch:normal;font-variant:normal;"><flowRegion
         id="flowRegion3390"><rect
           id="rect3392"
           width="220"
           height="214.28572"
           x="248.57143"
           y="432.36221"
           style="-inkscape-font-specification:'Times New Roman, ';font-family:'Times New Roman';font-weight:normal;font-style:normal;font-stretch:normal;font-variant:normal;font-size:90px;fill:none;" /></flowRegion><flowPara
         id="flowPara3394" /></flowRoot>    <flowRoot
       xml:space="preserve"
       id="flowRoot3420"
       style="font-style:normal;font-weight:normal;font-size:180px;line-height:125%;font-family:'Droid Serif';letter-spacing:0px;word-spacing:0px;fill:#000000;fill-opacity:1;stroke:none;stroke-width:1px;stroke-linecap:butt;stroke-linejoin:miter;stroke-opacity:1;-inkscape-font-specification:'Droid Serif';font-stretch:normal;font-variant:normal;"><flowRegion
         id="flowRegion3422"><rect
           id="rect3424"
           width="334.28571"
           height="291.42856"
           x="214.28572"
           y="415.21936"
           style="-inkscape-font-specification:'Droid Serif';font-family:'Droid Serif';font-weight:normal;font-style:normal;font-stretch:normal;font-variant:normal;" /></flowRegion><flowPara
         id="flowPara3426" /></flowRoot>    <flowRoot
       xml:space="preserve"
       id="flowRoot3428"
       style="font-style:normal;font-weight:normal;font-size:180px;line-height:125%;font-family:'Droid Serif';letter-spacing:0px;word-spacing:0px;fill:#000000;fill-opacity:1;stroke:none;stroke-width:1px;stroke-linecap:butt;stroke-linejoin:miter;stroke-opacity:1;-inkscape-font-specification:'Droid Serif';font-stretch:normal;font-variant:normal;"><flowRegion
         id="flowRegion3430"><rect
           id="rect3432"
           width="462.85715"
           height="360"
           x="257.14285"
           y="412.36221"
           style="-inkscape-font-specification:'Droid Serif';font-family:'Droid Serif';font-weight:normal;font-style:normal;font-stretch:normal;font-variant:normal;" /></flowRegion><flowPara
         id="flowPara3434" /></flowRoot>    <flowRoot
       xml:space="preserve"
       id="flowRoot3444"
       style="fill:black;stroke:none;stroke-opacity:1;stroke-width:1px;stroke-linejoin:miter;stroke-linecap:butt;fill-opacity:1;font-family:sans-serif;font-style:normal;font-weight:normal;font-size:180px;line-height:125%;letter-spacing:0px;word-spacing:0px"><flowRegion
         id="flowRegion3446"><rect
           id="rect3448"
           width="402.85715"
           height="222.85715"
           x="-1957.1428"
           y="115.21935" /></flowRegion><flowPara
         id="flowPara3450"></flowPara></flowRoot>  </g>
</svg>
