<?xml version="1.0" encoding="UTF-8" standalone="no"?>
<!-- Created with Inkscape (http://www.inkscape.org/) -->

<svg
   xmlns:dc="http://purl.org/dc/elements/1.1/"
   xmlns:cc="http://creativecommons.org/ns#"
   xmlns:rdf="http://www.w3.org/1999/02/22-rdf-syntax-ns#"
   xmlns:svg="http://www.w3.org/2000/svg"
   xmlns="http://www.w3.org/2000/svg"
   xmlns:sodipodi="http://sodipodi.sourceforge.net/DTD/sodipodi-0.dtd"
   xmlns:inkscape="http://www.inkscape.org/namespaces/inkscape"
   width="210mm"
   height="297mm"
   viewBox="0 0 744.09448819 1052.3622047"
   id="svg3472"
   version="1.1"
   inkscape:version="0.91 r13725"
   sodipodi:docname="warn-icon.svg">
  <defs
     id="defs3474" />
  <sodipodi:namedview
     id="base"
     pagecolor="#ffffff"
     bordercolor="#666666"
     borderopacity="1.0"
     inkscape:pageopacity="0.0"
     inkscape:pageshadow="2"
     inkscape:zoom="0.35"
     inkscape:cx="-132.14286"
     inkscape:cy="520"
     inkscape:document-units="px"
     inkscape:current-layer="layer1"
     showgrid="false"
     inkscape:window-width="1879"
     inkscape:window-height="1056"
     inkscape:window-x="41"
     inkscape:window-y="24"
     inkscape:window-maximized="1" />
  <metadata
     id="metadata3477">
    <rdf:RDF>
      <cc:Work
         rdf:about="">
        <dc:format>image/svg+xml</dc:format>
        <dc:type
           rdf:resource="http://purl.org/dc/dcmitype/StillImage" />
        <dc:title></dc:title>
      </cc:Work>
    </rdf:RDF>
  </metadata>
  <g
     inkscape:label="Layer 1"
     inkscape:groupmode="layer"
     id="layer1">
    <path
       style="fill:#4d4d4d;fill-opacity:1;stroke:none"
       d="m 262.22489,303.79018 c -48.71817,0 -87.93945,39.22128 -87.93945,87.93945 l 0,235.55078 c 0,48.71817 39.22128,87.93946 87.93945,87.93946 l 235.55078,0 c 48.71817,0 87.93946,-39.22129 87.93946,-87.93946 l 0,-235.55078 c 0,-48.71817 -39.22129,-87.93945 -87.93946,-87.93945 l -235.55078,0 z m 84.92578,69.33594 65.69922,0 -22.14648,183.62304 -21.22266,0 -22.33008,-183.62304 z m 33.21875,212.41211 c 4.18305,0 8.11962,0.49231 11.81055,1.47656 3.81396,0.98425 7.13513,2.64483 9.96484,4.98242 2.82971,2.33759 5.04513,5.47512 6.64453,9.41211 1.72244,3.81396 2.58399,8.61208 2.58399,14.39453 0,5.65942 -0.86155,10.39503 -2.58399,14.20899 -1.5994,3.81395 -3.81482,6.89092 -6.64453,9.22851 -2.82971,2.33759 -6.15088,3.99818 -9.96484,4.98242 -3.69093,1.10728 -7.6275,1.66016 -11.81055,1.66016 -4.30608,0 -8.36573,-0.55288 -12.17968,-1.66016 -3.81396,-0.98424 -7.13709,-2.64483 -9.9668,-4.98242 -2.70668,-2.33759 -4.85958,-5.41456 -6.45899,-9.22851 -1.5994,-3.81396 -2.39843,-8.54957 -2.39843,-14.20899 0,-5.78245 0.79903,-10.58057 2.39843,-14.39453 1.59941,-3.93699 3.75231,-7.07452 6.45899,-9.41211 2.82971,-2.33759 6.15284,-3.99817 9.9668,-4.98242 3.81395,-0.98425 7.8736,-1.47656 12.17968,-1.47656 z"
       id="rect3482"
       inkscape:connector-curvature="0" />
  </g>
</svg>
